#N canvas 520 177 888 556 10;
#X obj 93 329 dac~;
#X obj 85 165 loadbang;
#X obj 295 162 loadbang;
#X msg 80 196 symbol harp-c3.wav;
#X msg 290 193 symbol bell-c2.wav;
#X obj 567 415 readsf~;
#X obj 570 501 dac~;
#X obj 608 343 bng 15 250 50 0 empty empty empty 17 7 0 10 -262144
-1 -1;
#X msg 553 375 0;
#X obj 82 230 sampler-instrument 1;
#X obj 292 228 sampler-instrument 2;
#X obj 559 160 notein 3;
#X obj 553 345 bng 15 250 50 0 empty empty empty 17 7 0 10 -262144
-1 -1;
#X obj 560 197 stripnote;
#X msg 610 377 open apache.wav \, 1;
#X obj 96 25 loadbang;
#X msg 92 65 \; pd dsp 1;
#X obj 569 447 *~ 0.05;
#X obj 63 473 s pd;
#X msg 63 442 midi-dialog 1 0 0 0 0 0 0 0 0 0 0 0 0 0 0 0 0 0 2 2;
#X text 55 418 click to reset MIDI e.g. after restarting MIDI device
;
#X obj 561 288 f 0;
#X obj 601 288 == 0;
#X obj 559 315 sel 1;
#X obj 561 263 bng 15 250 50 0 empty empty empty 17 7 0 10 -262144
-1 -1;
#X obj 560 235 sel 60;
#X obj 91 298 *~;
#X obj 153 298 *~;
#X obj 19 211 loadbang;
#X msg 19 240 0.2;
#X connect 1 0 3 0;
#X connect 2 0 4 0;
#X connect 3 0 9 0;
#X connect 4 0 10 0;
#X connect 5 0 17 0;
#X connect 5 1 14 0;
#X connect 7 0 14 0;
#X connect 8 0 5 0;
#X connect 9 0 26 0;
#X connect 10 0 27 0;
#X connect 11 0 13 0;
#X connect 11 1 13 1;
#X connect 12 0 8 0;
#X connect 13 0 25 0;
#X connect 14 0 5 0;
#X connect 15 0 16 0;
#X connect 17 0 6 0;
#X connect 17 0 6 1;
#X connect 19 0 18 0;
#X connect 21 0 22 0;
#X connect 21 0 23 0;
#X connect 22 0 21 1;
#X connect 23 0 7 0;
#X connect 23 1 12 0;
#X connect 24 0 21 0;
#X connect 25 0 24 0;
#X connect 26 0 0 0;
#X connect 27 0 0 1;
#X connect 28 0 29 0;
#X connect 29 0 26 1;
#X connect 29 0 27 1;
