#N canvas 81 93 1257 829 10;
#X obj 412 457 pack f f f;
#X floatatom 363 373 5 0 0 0 - - -;
#X floatatom 363 393 5 0 0 0 - - -;
#X floatatom 363 413 5 0 0 0 - - -;
#X text 289 392 note number;
#X text 305 412 velocity;
#X text 467 332 <-- first argument is the maximum number of voices.
Giving 1 as the second argument activates voice-stealing.;
#X msg 300 317 stop;
#X text 75 316 send note-offs for all active voices;
#X msg 583 103 1 100;
#X msg 630 103 1.5 100;
#X obj 339 187 mtof;
#X obj 344 254 /;
#X obj 379 252 mtof;
#X obj 378 188 loadbang;
#X text 284 372 voice number;
#X obj 133 615 timewarp2;
#X obj 133 691 timewarp2;
#X obj 326 611 timewarp2;
#X obj 326 687 timewarp2;
#X obj 348 123 stripnote;
#X obj 412 526 route 1 2 3 4 5 6 7 8;
#X obj 521 606 timewarp2;
#X obj 519 688 timewarp2;
#X obj 714 602 timewarp2;
#X obj 714 678 timewarp2;
#X obj 407 334 poly 8 1;
#X obj 379 163 bng 15 250 50 0 empty empty empty 17 7 0 10 -262144
-1 -1;
#X obj 381 218 60;
#X obj 80 59 inlet;
#X obj 81 87 s \$0-filename;
#X obj 226 592 r \$0-filename;
#X obj 219 665 r \$0-filename;
#X obj 419 588 r \$0-filename;
#X obj 412 661 r \$0-filename;
#X obj 614 583 r \$0-filename;
#X obj 607 656 r \$0-filename;
#X obj 807 579 r \$0-filename;
#X obj 800 652 r \$0-filename;
#X obj 221 52 loadbang;
#X obj 219 84 print \$1;
#X obj 440 49 notein \$1;
#X obj 505 776 outlet~;
#X obj 914 159 sel 60;
#X obj 924 256 timewarp2;
#X obj 1016 223 r \$0-filename;
#X msg 913 214 1;
#X obj 1000 168 sel 0;
#X obj 904 416 *~;
#X msg 941 325 1;
#X obj 1067 367 line 1 1;
#X msg 1073 321 1 \, 0 300;
#X obj 585 33 loadbang;
#X obj 632 79 delay 0.5;
#X connect 0 0 21 0;
#X connect 7 0 26 0;
#X connect 9 0 26 0;
#X connect 10 0 26 0;
#X connect 11 0 12 0;
#X connect 12 0 26 0;
#X connect 13 0 12 1;
#X connect 14 0 28 0;
#X connect 16 0 42 0;
#X connect 17 0 42 0;
#X connect 18 0 42 0;
#X connect 19 0 42 0;
#X connect 20 0 11 0;
#X connect 21 0 16 0;
#X connect 21 1 17 0;
#X connect 21 2 18 0;
#X connect 21 3 19 0;
#X connect 21 4 22 0;
#X connect 21 5 23 0;
#X connect 21 6 24 0;
#X connect 21 7 25 0;
#X connect 22 0 42 0;
#X connect 23 0 42 0;
#X connect 24 0 42 0;
#X connect 25 0 42 0;
#X connect 26 0 0 0;
#X connect 26 0 1 0;
#X connect 26 1 0 1;
#X connect 26 1 2 0;
#X connect 26 2 0 2;
#X connect 26 2 3 0;
#X connect 28 0 13 0;
#X connect 29 0 30 0;
#X connect 31 0 16 1;
#X connect 32 0 17 1;
#X connect 33 0 18 1;
#X connect 34 0 19 1;
#X connect 35 0 22 1;
#X connect 36 0 23 1;
#X connect 37 0 24 1;
#X connect 38 0 25 1;
#X connect 39 0 40 0;
#X connect 41 0 20 0;
#X connect 41 1 20 1;
#X connect 41 1 26 1;
#X connect 43 0 46 0;
#X connect 44 0 48 0;
#X connect 45 0 44 1;
#X connect 46 0 44 0;
#X connect 46 0 49 0;
#X connect 47 0 51 0;
#X connect 49 0 48 1;
#X connect 50 0 48 1;
#X connect 51 0 50 0;
#X connect 52 0 9 0;
#X connect 52 0 53 0;
#X connect 53 0 10 0;
