#N canvas 291 96 1166 762 10;
#X obj 316 214 soundfiler;
#N canvas 0 22 450 300 (subpatch) 0;
#X array \$0-timewarpL 56384 float 2;
#X coords 0 1 56384 -1 200 140 1;
#X restore 624 125 graph;
#X obj 149 139 inlet;
#X obj 149 504 outlet~;
#X obj 50 545 snapshot~;
#X obj 50 517 metro 50;
#X obj 50 490 tgl 15 0 empty empty empty 17 7 0 10 -262144 -1 -1 0
1;
#X obj 627 271 hsl 195 15 0 1 0 0 empty position empty -2 -8 0 10 -262144
-1 -1 0 1;
#X obj 50 589 s position;
#X msg 316 188 read -resize \$1 \$2-timewarpL \$2-timewarpR;
#N canvas 0 22 450 300 (subpatch) 0;
#X array \$0-timewarpR 56384 float 2;
#X coords 0 1 56384 -1 200 140 1;
#X restore 624 315 graph;
#X obj 627 461 hsl 195 15 0 1 0 0 empty position empty -2 -8 0 10 -262144
-1 -1 0 1;
#X obj 150 482 tabread4~ \$0-timewarpL;
#X obj 149 425 vline~;
#X obj 149 367 pack f f;
#X obj 266 241 f;
#X obj 149 198 t f b;
#X obj 149 325 expr $f2/($f1*44.1);
#X obj 50 566 /;
#X msg 150 394 0 0 \, \$2 \$1;
#X obj 413 381 pack s f;
#X obj 478 359 f \$0;
#X obj 478 338 loadbang;
#X obj 413 358 openpanel;
#X obj 370 129 pack s f;
#X obj 531 93 f \$0;
#X obj 479 574 bng 15 250 50 0 empty empty empty 17 7 0 10 -262144
-1 -1;
#X msg 485 665 symbol marimba-c5.wav;
#X obj 483 636 delay 500;
#X obj 432 159 print;
#X obj 479 604 loadbang;
#X obj 434 36 loadbang;
#X obj 433 62 symbol \$1;
#X obj 364 92 inlet;
#X obj 532 61 loadbang;
#X connect 0 0 15 1;
#X connect 0 0 18 1;
#X connect 2 0 16 0;
#X connect 4 0 18 0;
#X connect 5 0 4 0;
#X connect 6 0 5 0;
#X connect 9 0 0 0;
#X connect 12 0 3 0;
#X connect 13 0 12 0;
#X connect 13 0 4 0;
#X connect 14 0 19 0;
#X connect 15 0 14 1;
#X connect 15 0 17 1;
#X connect 16 0 17 0;
#X connect 16 1 15 0;
#X connect 17 0 14 0;
#X connect 18 0 8 0;
#X connect 19 0 13 0;
#X connect 21 0 20 1;
#X connect 22 0 21 0;
#X connect 23 0 20 0;
#X connect 24 0 9 0;
#X connect 24 0 29 0;
#X connect 25 0 24 1;
#X connect 28 0 27 0;
#X connect 30 0 28 0;
#X connect 31 0 32 0;
#X connect 33 0 24 0;
#X connect 34 0 25 0;
#X coords 0 -1 1 1 100 25 1 200 50;
